<svg width="82" height="20" viewBox="0 0 82 20" fill="none" xmlns="http://www.w3.org/2000/svg">
<path d="M49.034 18.9774V6.16629H51.3107V18.9774H49.034ZM49.034 4.72628V2.1442H51.3107V4.72628H49.034Z" fill="#171717"/>
<path d="M46.2777 19.0271C45.527 19.0271 44.9001 18.9361 44.3969 18.754C43.8979 18.5678 43.5164 18.2678 43.2524 17.854C42.9926 17.4402 42.8626 16.896 42.8626 16.2216V8.87254V7.08494V5.27252V2.24353H45.1393V5.27252V7.08494V8.87254V15.9981C45.1393 16.2464 45.1847 16.4512 45.2754 16.6126C45.3662 16.7698 45.5167 16.8898 45.7271 16.9726C45.9415 17.0512 46.2323 17.0905 46.5994 17.0905C46.752 17.0905 46.9087 17.0905 47.0696 17.0905C47.2304 17.0905 47.3933 17.0905 47.5583 17.0905H47.7377V18.9774C47.713 18.9774 47.6862 18.9774 47.6573 18.9774C47.6326 18.9816 47.6078 18.9837 47.5831 18.9837C47.3521 18.9961 47.1211 19.0064 46.8902 19.0147C46.6592 19.023 46.455 19.0271 46.2777 19.0271ZM40.8334 8.07805V6.16632H44.001H47.7377V8.07805H44.001H40.8334Z" fill="#171717"/>
<path d="M40.2718 19.0519C39.7068 19.0519 39.249 18.9671 38.8984 18.7974C38.5519 18.6236 38.2983 18.363 38.1374 18.0154C37.9766 17.6636 37.8961 17.2147 37.8961 16.6685L37.8219 16.2464V11.6532V10.9084V9.6422C37.8219 9.21185 37.7374 8.86012 37.5683 8.58702C37.3992 8.30977 37.1146 8.10288 36.7145 7.96632C36.3185 7.82563 35.7803 7.75529 35.0998 7.75529C34.3904 7.75529 33.8191 7.82977 33.3861 7.97874C32.9571 8.1277 32.6334 8.37598 32.4148 8.72357C32.1962 9.06702 32.0663 9.53875 32.025 10.1388H29.7669C29.8164 9.25323 30.0247 8.49598 30.3917 7.86701C30.7588 7.2339 31.328 6.74356 32.0993 6.39597C32.8746 6.04424 33.8748 5.86838 35.0998 5.86838C36.267 5.86838 37.2177 6.02562 37.9518 6.34011C38.686 6.65045 39.218 7.08494 39.548 7.64356C39.8821 8.19805 40.0491 8.85598 40.0491 9.61737V16.5443C40.0491 16.6809 40.0718 16.7967 40.1172 16.8919C40.1666 16.9871 40.2429 17.0616 40.3461 17.1154C40.4492 17.165 40.5811 17.1898 40.742 17.1898C40.841 17.1898 40.9503 17.1898 41.0699 17.1898C41.1895 17.1898 41.3112 17.1898 41.4349 17.1898V18.9774C41.2658 19.0023 41.0802 19.0209 40.8781 19.0333C40.676 19.0457 40.4739 19.0519 40.2718 19.0519ZM33.7635 19.2754C32.8437 19.2754 32.0436 19.1305 31.363 18.8409C30.6825 18.5471 30.1566 18.1167 29.7854 17.5498C29.4184 16.9829 29.2348 16.3002 29.2348 15.5016C29.2348 14.7898 29.3916 14.1629 29.705 13.6208C30.0185 13.0746 30.5278 12.6215 31.2331 12.2615C31.9425 11.8974 32.8685 11.6532 34.0109 11.5291L35.8669 11.3305C36.3 11.285 36.6588 11.1981 36.9434 11.0698C37.2321 10.9415 37.4507 10.7615 37.5992 10.5298C37.7477 10.2939 37.8219 9.99806 37.8219 9.6422L38.6633 9.84082C38.6633 10.5939 38.5849 11.1857 38.4282 11.616C38.2756 12.0464 38.0219 12.3691 37.6672 12.5843C37.3167 12.7953 36.8238 12.9402 36.1886 13.0188L34.3821 13.2422C33.6768 13.3291 33.12 13.4677 32.7117 13.6581C32.3034 13.8443 32.0126 14.0822 31.8394 14.3719C31.6703 14.6615 31.5858 15.0133 31.5858 15.4271C31.5858 15.8409 31.6744 16.1988 31.8518 16.5009C32.0291 16.7988 32.2993 17.0305 32.6622 17.196C33.0293 17.3574 33.4871 17.4381 34.0357 17.4381C34.6791 17.4381 35.2895 17.3098 35.8669 17.0533C36.4443 16.7967 36.9145 16.4036 37.2775 15.874C37.6404 15.3443 37.8219 14.6905 37.8219 13.9126H38.688V15.4271C38.4818 16.2588 38.156 16.9623 37.7105 17.5374C37.2651 18.1085 36.7104 18.5409 36.0463 18.8347C35.3823 19.1285 34.6213 19.2754 33.7635 19.2754Z" fill="#171717"/>
<path d="M25.5721 18.9774V6.16629H27.8488V18.9774H25.5721ZM25.5721 4.72628V2.1442H27.8488V4.72628H25.5721Z" fill="#171717"/>
<path d="M17.3729 18.9775V6.16633H19.5506V9.36912H19.6496V18.9775H17.3729ZM18.8824 11.2064C18.8824 10.3912 19.0474 9.58222 19.3774 8.77946C19.7114 7.97669 20.2311 7.30841 20.9364 6.77462C21.6417 6.23668 22.5243 5.96771 23.5843 5.96771C23.6915 5.96771 23.8008 5.97185 23.9122 5.98013C24.0277 5.98426 24.1493 5.99254 24.2772 6.00495V8.15256C24.17 8.15256 24.0668 8.15256 23.9679 8.15256C23.873 8.15256 23.7864 8.15256 23.708 8.15256C22.8666 8.15256 22.1428 8.29325 21.5365 8.57463C20.9302 8.85601 20.4642 9.27808 20.1383 9.84084C19.8125 10.3995 19.6496 11.0864 19.6496 11.9015H18.8824V11.2064Z" fill="#171717"/>
<path d="M8.24062 19.3747C6.64859 19.3747 5.22772 19.0022 3.97802 18.2574C2.73244 17.5084 1.75701 16.4367 1.05173 15.0422C0.350577 13.6477 0 12.0132 0 10.1387C0 8.26423 0.350577 6.62974 1.05173 5.23525C1.75288 3.84075 2.72625 2.77109 3.97183 2.02626C5.21741 1.27729 6.64034 0.902802 8.24062 0.902802C9.48207 0.902802 10.6266 1.12625 11.6742 1.57315C12.7259 2.01591 13.6189 2.70075 14.353 3.62765C15.0913 4.55041 15.5965 5.70284 15.8688 7.08491H13.4312C13.192 6.14974 12.8146 5.38628 12.2991 4.79455C11.7876 4.19869 11.1855 3.76627 10.4926 3.4973C9.80378 3.2242 9.05313 3.08764 8.24062 3.08764C7.09403 3.08764 6.08973 3.36903 5.22772 3.93179C4.36984 4.49041 3.70374 5.29939 3.22943 6.3587C2.75925 7.41802 2.52415 8.67803 2.52415 10.1387C2.52415 11.5994 2.75925 12.8594 3.22943 13.9188C3.70374 14.9781 4.36984 15.7891 5.22772 16.3519C6.08973 16.9105 7.09403 17.1898 8.24062 17.1898C9.09025 17.1898 9.89245 17.0181 10.6472 16.6746C11.402 16.3312 12.0392 15.8077 12.5589 15.1043C13.0827 14.3967 13.4127 13.5277 13.5488 12.4974H15.9863C15.8337 13.9788 15.3841 15.2367 14.6376 16.2712C13.8952 17.3057 12.9631 18.0815 11.8412 18.5988C10.7235 19.116 9.52332 19.3747 8.24062 19.3747Z" fill="#171717"/>
<rect x="81.9399" y="9.11252" width="24.6291" height="6.15729" rx="1" transform="rotate(-180 81.9399 9.11252)" fill="#171717"/>
<rect x="81.9399" y="15.2698" width="24.6291" height="4.10486" rx="1" transform="rotate(-180 81.9399 15.2698)" fill="#525252"/>
<rect x="73.7301" y="19.3747" width="16.4194" height="2.05243" rx="1" transform="rotate(-180 73.7301 19.3747)" fill="#A3A3A3"/>
<rect x="81.9399" y="19.3747" width="6.15729" height="2.05243" rx="1" transform="rotate(-180 81.9399 19.3747)" fill="#A3A3A3"/>
</svg>
